# AST/ASF file generated using VICON BodyLanguage
# -----------------------------------------------
:version 1.10
:name VICON
:units
  mass 1.0
  length 0.45
  angle deg
:documentation
   .ast/.asf automatically generated from VICON data using
   VICON BodyBuilder and BodyLanguage model FoxedUp or BRILLIANT.MOD
:root
   order TX TY TZ RX RY RZ
   axis XYZ
   position 0 0 0  
   orientation 0 0 0 
:bonedata
  begin
     id 1 
     name lhipjoint
     direction 0.560651 -0.75055 0.34978 
     length 2.44936 
     axis 0 0 0  XYZ
  end
  begin
     id 2 
     name lfemur
     direction 0.34202 -0.939693 0  
     length 7.42139  
     axis 0 0 20  XYZ
    dof rx ry rz
    limits (-160.0 20.0)
           (-70.0 70.0)
           (-60.0 70.0)
  end
  begin
     id 3 
     name ltibia
     direction 0.34202 -0.939693 0   
     length 7.75674   
     axis 0 0 20   XYZ
    dof rx
    limits (-10.0 170.0)
  end
  begin
     id 4 
     name lfoot
     direction 0.0925879 -0.254383 0.962661   
     length 2.38688   
     axis -90 7.62852e-016 20   XYZ
    dof rx rz
    limits (-45.0 90.0)
           (-70.0 20.0)
  end
  begin
     id 5 
     name ltoes
     direction 1.53567e-011 -4.21973e-011 1   
     length 1.19228   
     axis -90 7.62852e-016 20   XYZ
    dof rx
    limits (-90.0 20.0)
  end
  begin
     id 6 
     name rhipjoint
     direction -0.540087 -0.762838 0.355506   
     length 2.4099  
     axis 0 0 0  XYZ 
  end
  begin
     id 7 
     name rfemur
     direction -0.34202 -0.939693 0   
     length 7.70794   
     axis 0 0 -20   XYZ
    dof rx ry rz
    limits (-160.0 20.0)
           (-70.0 70.0)
           (-70.0 60.0)
  end
  begin
     id 8 
     name rtibia
     direction -0.34202 -0.939693 0   
     length 7.66106   
     axis 0 0 -20   XYZ
    dof rx
    limits (-10.0 170.0)
 end
 begin
     id 9 
     name rfoot
     direction -0.0830975 -0.228308 0.970036   
     length 2.4989  
     axis -90 -7.62852e-016 -20   XYZ
    dof rx rz
    limits (-45.0 90.0)
           (-20.0 70.0)
  end
  begin
     id 10 
     name rtoes
     direction -1.53517e-011 -4.21842e-011 1   
     length 1.2498   
     axis -90 -7.62852e-016 -20   XYZ
    dof rx
    limits (-90.0 20.0)
  end
  begin
     id 11 
     name lowerback
     direction 0.0266356 0.99402 -0.105896   
     length 2.1545   
     axis 0 0 0   XYZ
    dof rx ry rz
    limits (-20.0 45.0)
           (-30.0 30.0)
           (-30.0 30.0)
  end
  begin
     id 12 
     name upperback
     direction 0.0130547 0.999192 0.0380027   
     length 2.1434   
     axis 0 0 0   XYZ
    dof rx ry rz
    limits (-20.0 45.0)
           (-30.0 30.0)
           (-30.0 30.0)
  end
  begin
     id 13 
     name thorax
     direction 0.000590299 0.996288 0.0860764   
     length 2.19049   
     axis 0 0 0   XYZ
    dof rx ry rz
    limits (-20.0 45.0)
           (-30.0 30.0)
           (-30.0 30.0)
  end
  begin
     id 14 
     name lowerneck
     direction -0.0432125 0.978219 0.203028   
     length 1.62441   
     axis 0 0 0   XYZ
    dof rx ry rz
    limits (-20.0 45.0)
           (-30.0 30.0)
           (-30.0 30.0)
  end
  begin
     id 15 
     name upperneck
     direction -0.0192309 0.991699 -0.127138   
     length 1.66666   
     axis 0 0 0   XYZ
    dof rx ry rz
    limits (-20.0 45.0)
           (-30.0 30.0)
           (-30.0 30.0)
  end
  begin
     id 16
     name head
     direction -0.00434499 0.997882 -0.0649107  
     length 1.67142  
     axis 0 0 0   XYZ
    dof rx ry rz
    limits (-20.0 45.0)
           (-30.0 30.0)
           (-30.0 30.0)
  end
  begin
     id 17 
     name lclavicle
     direction 0.970351 0.240904 -0.0196058  
     length 4.04862  
     axis 0 0 0   XYZ
    dof ry rz
    limits (-20.0 10.0)
           (0.0 20.0)
  end
  begin
     id 18 
     name lhumerus
     direction 1 -4.4896e-011 -1.40911e-018   
     length 5.58345   
     axis 180 -30 -90   XYZ
    dof rx ry rz
    limits (-60.0 90.0)
           (-90.0 90.0)
           (-90.0 90.0)
  end
  begin
     id 19
     name lradius
     direction 1 -4.48968e-011 5.88912e-028   
     length 3.71087   
     axis 180 -30 -90   XYZ
    dof rx
    limits (-10.0 170.0)
  end
  begin
     id 20
     name lwrist
     direction 1 -4.48955e-011 -8.83775e-028   
     length 1.85544   
     axis 5.52448e-016 90 90   XYZ
    dof ry
    limits (-180.0 0.0)
 end
  begin
     id 21 
     name lhand
     direction 1 -4.49035e-011 -1.76755e-027   
     length 0.562322   
     axis 1.12785e-015 90 90   XYZ
    dof rx rz
    limits (-90.0 90.0)
           (-45.0 45.0)
  end
  begin
     id 22 
     name lfingers
     direction 1 -4.48824e-011 -3.5351e-027   
     length 0.453359   
     axis 2.2557e-015 90 90   XYZ
    dof rx
    limits (0.0 90.0)
  end
  begin
     id 23
     name lthumb
     direction 0.707107 -6.34888e-011 0.707107   
     length 0.650935   
     axis -90 45 2.85299e-015   XYZ
    dof rx rz
    limits (-45.0 45.0)
           (-45.0 45.0)
  end
  begin
     id 24 
     name rclavicle
     direction -0.96165 0.268562 -0.0557131   
     length 4.05446  
     axis 0 0 0   XYZ 
    dof ry rz
    limits (-10.0 20.0)
           (-20.0 0.0)
  end
  begin
     id 25 
     name rhumerus
     direction -1 -4.48957e-011 -3.36329e-027  
     length 5.20357   
     axis 180 30 90   XYZ
    dof rx ry rz
    limits (-90.0 60.0)
           (-90.0 90.0)
           (-90.0 90.0)
  end
  begin
     id 26 
     name rradius
     direction -1 -4.48974e-011 4.51441e-027   
     length 3.64937   
     axis 180 30 90   XYZ
    dof rx
    limits (-10.0 170.0)
  end
  begin
     id 27 
     name rwrist
     direction -1 -4.4896e-011 -8.83775e-028   
     length 1.82468   
     axis 5.52448e-016 -90 -90   XYZ
    dof ry
    limits (-180.0 0.0)
  end
  begin
     id 28
     name rhand
     direction -1 -4.48996e-011 -1.76755e-027   
     length 0.617996   
     axis 1.12785e-015 -90 -90   XYZ
    dof rx rz
    limits (-90.0 90.0)
           (-45.0 45.0)
  end
  begin
     id 29
     name rfingers
     direction -1 -4.48957e-011 -3.5351e-027   
     length 0.498244   
     axis 2.2557e-015 -90 -90   XYZ
    dof rx
    limits (0.0 90.0)
  end
  begin
     id 30
     name rthumb
     direction -0.707107 -6.34931e-011 0.707107   
     length 0.715382   
     axis -90 -45 -2.85299e-015   XYZ
    dof rx rz
    limits (-45.0 45.0)
           (-45.0 45.0)
  end
:hierarchy
  begin
    root lhipjoint rhipjoint lowerback
    lhipjoint lfemur
    lfemur ltibia
    ltibia lfoot
    lfoot ltoes
    rhipjoint rfemur
    rfemur rtibia
    rtibia rfoot
    rfoot rtoes
    lowerback upperback
    upperback thorax
    thorax lowerneck lclavicle rclavicle
    lowerneck upperneck
    upperneck head
    lclavicle lhumerus
    lhumerus lradius
    lradius lwrist
    lwrist lhand lthumb
    lhand lfingers
    rclavicle rhumerus
    rhumerus rradius
    rradius rwrist
    rwrist rhand rthumb
    rhand rfingers
  end

#!OML:ASF H:\ManfredETheater\Project 1\Capture day 2\Session 1\Male1.ASF
:FULLY-SPECIFIED
:DEGREES
48
root 0.662562 17.1561 19.4875 -11.3341 13.9322 -6.85548
lowerback 15.3632 -2.14727 4.10098
upperback 0.66017 -1.74452 4.39633
thorax -7.91691 -0.898706 2.77737
lowerneck -22.8142 -2.27024 -2.56166
upperneck 20.0224 -1.83278 -1.71309
head 10.1678 -1.25799 -0.467576
rclavicle 1.70458e-014 -4.77083e-015
rhumerus -45.2446 0.907409 -81.0403
rradius 73.5363
rwrist 2.39818
rhand -36.2827 2.59897
rfingers 7.12502
rthumb -9.38257 -27.1722
lclavicle 1.70458e-014 -4.77083e-015
lhumerus -44.8843 -7.51015 96.0172
lradius 70.2428
lwrist 1.34378
lhand -24.4059 -7.66698
lfingers 7.12502
lthumb 2.0853 22.3026
rfemur -21.2801 -1.1323 27.9662
rtibia 43.6569
rfoot -3.21309 -8.47852
rtoes 5.58092
lfemur -24.6157 -0.647368 -16.0111
ltibia 63.1947
lfoot -19.3956 -5.88942
ltoes -3.03418
49
root 0.67663 17.2177 19.6426 -11.0677 13.7941 -6.71802
lowerback 15.2495 -2.04758 3.98975
upperback 0.684411 -1.64488 4.36268
thorax -7.82588 -0.847321 2.77524
lowerneck -22.8416 -2.28574 -2.63318
upperneck 19.898 -1.83987 -1.67471
head 10.1292 -1.26092 -0.442413
rclavicle 4.76462e-014 -7.95139e-015
rhumerus -45.0181 0.953527 -81.1978
rradius 72.9356
rwrist 1.51392
rhand -36.4941 2.60336
rfingers 7.12502
rthumb -9.58659 -27.1585
lclavicle 4.76462e-014 -7.95139e-015
lhumerus -44.7297 -7.17737 95.6591
lradius 69.1214
lwrist 1.20602
lhand -23.9729 -7.5091
lfingers 7.12502
lthumb 2.50349 22.456
rfemur -20.7571 -1.19074 27.9726
rtibia 43.2795
rfoot -3.54754 -8.51838
rtoes 6.89147
lfemur -24.7082 -0.736772 -16.3421
ltibia 60.8252
lfoot -19.6309 -5.95128
ltoes -4.12868
50
root 0.69458 17.2777 19.7956 -10.8431 13.6092 -6.59017
lowerback 15.1661 -1.9705 3.92265
upperback 0.698338 -1.5655 4.31628
thorax -7.76458 -0.807614 2.74121
lowerneck -22.8407 -2.26722 -2.63642
upperneck 19.8227 -1.81466 -1.67269
head 10.1019 -1.24858 -0.43655
rclavicle -1.44616e-014 2.94201e-014
rhumerus -44.8006 1.13622 -81.4145
rradius 72.3135
rwrist 0.762856
rhand -36.4882 2.08293
rfingers 7.12502
rthumb -9.5809 -27.6792
lclavicle -1.44616e-014 2.94201e-014
lhumerus -44.687 -6.78368 95.2351
lradius 68.0766
lwrist 1.19294
lhand -23.5214 -7.24098
lfingers 7.12502
lthumb 2.93954 22.7185
rfemur -20.1974 -1.24268 27.9714
rtibia 42.9091
rfoot -3.55251 -8.35795
rtoes 5.97312
lfemur -24.6267 -0.885852 -16.6229
ltibia 58.3434
lfoot -19.4947 -6.26725
ltoes -4.275
51
root 0.714152 17.3385 19.9501 -10.5694 13.3821 -6.37338
lowerback 15.0014 -1.81497 3.83095
upperback 0.71397 -1.39394 4.24723
thorax -7.65725 -0.722851 2.67348
lowerneck -22.8292 -2.32512 -2.76545
upperneck 19.7263 -1.86274 -1.63027
head 10.0675 -1.27447 -0.406679
rclavicle 4.31114e-014 -3.02153e-014
rhumerus -44.6092 1.1676 -81.4957
rradius 71.7285
rwrist 0.27617
rhand -36.5034 1.83909
rfingers 7.12502
rthumb -9.59554 -27.9224
lclavicle 4.31114e-014 -3.02153e-014
lhumerus -44.6363 -6.59603 94.9233
lradius 67.001
lwrist 1.29862
lhand -23.1494 -6.85374
lfingers 7.12502
lthumb 3.29878 23.1005
rfemur -19.6805 -1.29385 27.8805
rtibia 42.5588
rfoot -3.76389 -8.22422
rtoes 5.7025
lfemur -24.427 -1.07701 -16.941
ltibia 55.7731
lfoot -19.3313 -6.6838
ltoes -4.72429
52
root 0.734584 17.3981 20.103 -10.2796 13.0069 -6.29853
lowerback 14.8037 -1.69841 3.83508
upperback 0.6664 -1.25374 4.21049
thorax -7.60087 -0.656326 2.59534
lowerneck -22.6724 -2.28473 -2.71148
upperneck 19.6391 -1.8174 -1.6931
head 10.0067 -1.25594 -0.428017
rclavicle 2.46245e-014 -3.81667e-014
rhumerus -44.5184 1.40633 -81.7719
rradius 71.1447
rwrist -0.21167
rhand -36.609 1.72524
rfingers 7.12502
rthumb -9.69745 -28.0315
lclavicle 2.46245e-014 -3.81667e-014
lhumerus -44.74 -6.23147 94.4839
lradius 65.9685
lwrist 1.42161
lhand -22.7849 -6.35838
lfingers 7.12502
lthumb 3.65082 23.5901
rfemur -19.2071 -1.18509 27.9782
rtibia 42.1837
rfoot -3.69272 -8.13985
rtoes 5.76249
lfemur -24.1764 -1.23583 -17.0198
ltibia 53.1894
lfoot -18.8885 -6.91663
ltoes -5.37944
53
root 0.757629 17.458 20.2513 -9.93724 12.5778 -6.28064
lowerback 14.5762 -1.55936 3.96324
upperback 0.571356 -1.06237 4.17228
thorax -7.58197 -0.569542 2.43631
lowerneck -22.4755 -2.27168 -2.73431
upperneck 19.5775 -1.79884 -1.69934
head 9.94953 -1.24878 -0.42065
rclavicle -4.31984e-014 2.38542e-015
rhumerus -44.4924 1.62343 -81.9831
rradius 70.6259
rwrist -0.26528
rhand -36.601 1.31883
rfingers 7.12502
rthumb -9.68972 -28.4383
lclavicle -4.31984e-014 2.38542e-015
lhumerus -44.858 -5.92662 94.0681
lradius 64.9049
lwrist 1.57774
lhand -22.3948 -5.71438
lfingers 7.12502
lthumb 4.02754 24.2273
rfemur -18.8301 -1.13694 28.1372
rtibia 41.7973
rfoot -3.66871 -7.98486
rtoes 5.61335
lfemur -23.9342 -1.45691 -16.9844
ltibia 50.6491
lfoot -18.0131 -7.19306
ltoes -5.03774
54
root 0.783493 17.5188 20.4037 -9.60124 12.1042 -6.2384
lowerback 14.2809 -1.41051 4.06831
upperback 0.512017 -0.868848 4.1386
thorax -7.48451 -0.480369 2.29233
lowerneck -22.439 -2.27284 -2.72769
upperneck 19.6018 -1.79345 -1.74124
head 9.9513 -1.25108 -0.435516
rclavicle 1.15419e-014 -3.65764e-014
rhumerus -44.3944 1.84173 -82.1398
rradius 70.0921
rwrist 0.0704944
rhand -36.0872 0.733409
rfingers 7.12502
rthumb -9.19398 -29.0462
lclavicle 1.15419e-014 -3.65764e-014
lhumerus -45.0302 -5.6656 93.6607
lradius 63.9414
lwrist 1.84961
lhand -22.0945 -4.9699
lfingers 7.12502
lthumb 4.31748 24.9661
rfemur -18.3947 -1.20869 28.288
rtibia 41.3833
rfoot -3.51511 -7.72628
rtoes 4.42757
lfemur -23.5749 -1.75401 -16.9349
ltibia 48.1927
lfoot -16.5477 -7.30584
ltoes -4.9718
55
root 0.807255 17.5787 20.55 -9.16002 11.5175 -6.24189
lowerback 13.8802 -1.24155 4.15995
upperback 0.444377 -0.656551 4.13203
thorax -7.33516 -0.380716 2.17999
lowerneck -22.4361 -2.23056 -2.7416
upperneck 19.6393 -1.73966 -1.70032
head 9.96453 -1.22268 -0.411087
rclavicle 4.11112e-014 -4.92986e-014
rhumerus -44.2335 2.11549 -82.3324
rradius 69.5715
rwrist 0.569448
rhand -36.3036 0.804893
rfingers 7.12502
rthumb -9.40276 -28.9654
lclavicle 4.11112e-014 -4.92986e-014
lhumerus -45.0731 -5.26264 93.1919
lradius 62.843
lwrist 1.96395
lhand -21.6958 -4.19555
lfingers 7.12502
lthumb 4.70251 25.7323
rfemur -18.1206 -1.12909 28.5007
rtibia 40.9678
rfoot -3.40731 -7.53256
rtoes 4.42642
lfemur -23.3166 -2.07506 -16.7512
ltibia 45.876
lfoot -14.4806 -7.31127
ltoes -4.87601
56
root 0.834337 17.6396 20.7 -8.73233 10.9853 -6.14881
lowerback 13.3781 -1.07618 4.17794
upperback 0.428 -0.473419 4.10026
thorax -7.07176 -0.291868 2.08621
lowerneck -22.4794 -2.20105 -2.66068
upperneck 19.6755 -1.69366 -1.82299
head 9.98324 -1.21081 -0.461637
rclavicle 3.93345e-014 -2.38542e-015
rhumerus -44.0156 2.39385 -82.4968
rradius 69.0983
rwrist 1.13296
rhand -36.1018 0.510037
rfingers 7.12502
rthumb -9.20807 -29.2689
lclavicle 3.93345e-014 -2.38542e-015
lhumerus -45.1389 -4.884 92.7447
lradius 61.8307
lwrist 2.08966
lhand -21.3469 -3.38879
lfingers 7.12502
lthumb 5.03936 26.5313
rfemur -17.8039 -1.16037 28.5559
rtibia 40.5437
rfoot -3.49409 -7.3303
rtoes 6.02949
lfemur -22.9407 -2.49828 -16.6731
ltibia 43.7267
lfoot -11.9613 -7.20269
ltoes -6.16423
57
root 0.861088 17.695 20.85 -8.324 10.4605 -6.07047
lowerback 12.9947 -0.913148 4.2444
upperback 0.309634 -0.272263 4.05571
thorax -6.9843 -0.197427 1.95658
lowerneck -22.4326 -2.21624 -2.73374
upperneck 19.7884 -1.70209 -1.7733
head 10.0167 -1.2153 -0.433996
rclavicle -8.38623e-015 -5.08889e-014
rhumerus -43.9756 2.68811 -82.6593
rradius 68.662
rwrist 1.61989
rhand -35.8599 0.260665
rfingers 7.12502
rthumb -8.9746 -29.5284
lclavicle -8.38623e-015 -5.08889e-014
lhumerus -45.4064 -4.56161 92.3158
lradius 60.8593
lwrist 2.20441
lhand -20.9781 -2.63722
lfingers 7.12502
lthumb 5.39553 27.2741
rfemur -17.4604 -1.2335 28.6105
rtibia 40.122
rfoot -3.44488 -7.02169
rtoes 6.35887
lfemur -22.5425 -2.94689 -16.5622
ltibia 41.8017
lfoot -9.30908 -7.15444
ltoes -6.58008
58
root 0.885128 17.7432 20.9965 -7.94483 9.81824 -6.13161
lowerback 12.4993 -0.786735 4.33055
upperback 0.247567 -0.124224 4.07461
thorax -6.77229 -0.126797 1.89181
lowerneck -22.3196 -2.11542 -2.6835
upperneck 19.833 -1.58348 -1.77197
head 10.0113 -1.15673 -0.423026
rclavicle 1.55549e-014 1.43125e-014
rhumerus -43.8772 3.14287 -82.9333
rradius 68.2594
rwrist 2.05989
rhand -35.6633 0.216079
rfingers 7.12502
rthumb -8.78491 -29.5811
lclavicle 1.55549e-014 1.43125e-014
lhumerus -45.6194 -4.00745 91.7802
lradius 59.8118
lwrist 2.12129
lhand -20.6965 -2.0805
lfingers 7.12502
lthumb 5.66735 27.8237
rfemur -17.1185 -1.139 28.845
rtibia 39.6919
rfoot -3.47364 -6.74962
rtoes 6.61665
lfemur -22.1809 -3.22677 -16.2789
ltibia 40.1653
lfoot -6.51648 -7.19988
ltoes -7.3089
59
root 0.909336 17.7845 21.1421 -7.59585 9.23361 -6.18582
lowerback 12.1252 -0.640637 4.46609
upperback 0.174638 0.064001 4.06436
thorax -6.63944 -0.0389817 1.76569
lowerneck -22.3594 -2.07436 -2.57983
upperneck 19.9371 -1.5423 -1.83664
head 10.054 -1.13889 -0.458146
rclavicle -1.41386e-014 4.77083e-015
rhumerus -43.6788 3.51601 -83.1404
rradius 67.8351
rwrist 2.42582
rhand -35.9115 0.376235
rfingers 7.12502
rthumb -9.02445 -29.4107
lclavicle -1.41386e-014 4.77083e-015
lhumerus -45.8232 -3.65907 91.2857
lradius 58.7905
lwrist 2.17326
lhand -20.3808 -1.54018
lfingers 7.12502
lthumb 5.97222 28.3556
rfemur -16.7444 -1.07598 29.0378
rtibia 39.2548
rfoot -3.67846 -6.48807
rtoes 6.41892
lfemur -21.8254 -3.39724 -16.0646
ltibia 38.8967
lfoot -3.78033 -7.39015
ltoes -2.74897
60
root 0.932442 17.8217 21.289 -7.31007 8.68498 -6.11607
lowerback 11.6775 -0.52859 4.39154
upperback 0.165056 0.168406 4.06184
thorax -6.39686 0.0163798 1.77998
lowerneck -22.3212 -1.99255 -2.54066
upperneck 19.9887 -1.43972 -1.84851
head 10.065 -1.0905 -0.453423
rclavicle 4.75841e-015 -2.94201e-014
rhumerus -43.4587 3.98427 -83.351
rradius 67.4823
rwrist 2.6413
rhand -35.557 0.3177
rfingers 7.12502
rthumb -8.68235 -29.4837
lclavicle 4.75841e-015 -2.94201e-014
lhumerus -45.9693 -3.11414 90.7713
lradius 57.6997
lwrist 2.11416
lhand -20.0351 -0.925443
lfingers 7.12502
lthumb 6.3059 28.9607
rfemur -16.2449 -1.07412 29.0714
rtibia 38.8147
rfoot -3.87739 -6.09613
rtoes 6.81022
lfemur -21.3609 -3.10263 -16.0981
ltibia 38.0522
lfoot -1.57305 -8.06142
ltoes 2.75341
61
root 0.955172 17.8515 21.4308 -7.01153 8.18988 -6.14606
lowerback 11.3645 -0.410987 4.47593
upperback 0.123414 0.315229 4.07457
thorax -6.26422 0.0868016 1.71798
lowerneck -22.5409 -1.97342 -2.55396
upperneck 20.1522 -1.39035 -1.87575
head 10.1635 -1.07472 -0.457537
rclavicle 3.31722e-015 3.49861e-014
rhumerus -43.2181 4.30714 -83.4701
rradius 67.2001
rwrist 2.83756
rhand -35.5641 0.384256
rfingers 7.12502
rthumb -8.68919 -29.4169
lclavicle 3.31722e-015 3.49861e-014
lhumerus -46.1068 -2.74372 90.321
lradius 56.6775
lwrist 2.12544
lhand -19.7191 -0.324629
lfingers 7.12502
lthumb 6.61097 29.5522
rfemur -15.8038 -1.09643 29.1924
rtibia 38.3998
rfoot -4.26895 -5.77612
rtoes 7.17064
lfemur -20.8565 -2.74904 -16.0415
ltibia 37.582
lfoot -0.738236 -8.25363
ltoes 6.09735
